<?xml version="1.0" encoding="utf-8"?>
<!-- Generator: Adobe Illustrator 27.0.0, SVG Export Plug-In . SVG Version: 6.00 Build 0)  -->
<svg version="1.1" id="Layer_1" xmlns="http://www.w3.org/2000/svg" xmlns:xlink="http://www.w3.org/1999/xlink" x="0px" y="0px"
	 viewBox="0 0 20 20" style="enable-background:new 0 0 20 20;" xml:space="preserve">
<style type="text/css">
	.st0{fill:#FFFFFF;}
</style>
<g>
	<path class="st0" d="M1.8,5.4l1.7,6.9h0.1l1.7-6.9h1.1l-2.3,9H3l-2.3-9H1.8z"/>
	<path class="st0" d="M8.3,7.7v6.8h-1v-9h1.6l1,5.9H10l1-5.9h1.6v9h-1V7.7h-0.1l-1.2,6.8H9.6L8.3,7.7L8.3,7.7z"/>
	<path class="st0" d="M17.9,6.3c0.8,0.7,1.1,1.9,1.1,3.7c0,1.7-0.3,2.9-1,3.6c-0.7,0.6-1.5,0.9-2.5,0.9h-1.7v-9h1.7
		C16.5,5.4,17.3,5.7,17.9,6.3z M15.5,13.6c0.6,0,1.1-0.2,1.6-0.6c0.5-0.5,0.7-1.5,0.7-3c0-1.5-0.3-2.6-0.8-3.1
		c-0.4-0.4-0.9-0.6-1.5-0.6h-0.5v7.3H15.5z"/>
</g>
<g>
	<path class="st0" d="M20.5,20.5h-21v-21h21V20.5z M0.5,19.5h19v-19h-19V19.5z"/>
</g>
</svg>
